<svg width="24" height="24" viewBox="0 0 24 24" fill="none" xmlns="http://www.w3.org/2000/svg">
<path opacity="0.95" d="M12 24C18.6274 24 24 18.6274 24 12C24 5.37258 18.6274 0 12 0C5.37258 0 0 5.37258 0 12C0 18.6274 5.37258 24 12 24Z" fill="#94A2B8"/>
<path d="M6.13689 16.9255C5.01645 16.9255 6.1187 15.7886 6.1187 15.7886L8.97532 12.6492C9.25315 12.344 9.7893 11.8806 10.1028 12.1362C10.4162 12.3918 10.8348 12.9099 11.1263 13.2021L11.7171 13.7934C12.0338 14.0737 12.2774 13.7934 12.2774 13.7934L12.8819 13.1979C13.1759 12.9081 13.597 12.4026 13.9109 12.1674C14.2248 11.9322 14.7588 12.3794 15.0358 12.6854L17.8757 15.8233C18.9967 16.9256 17.8939 16.9256 17.8939 16.9256H6.13689V16.9255ZM6.62178 14.3427C6.34395 14.6482 5.93808 15.1794 5.66377 15.4879C5.35406 15.836 5 16.1003 5 15.4906L5.01347 9.36601C5.01448 8.95313 5.00302 8.16581 5.28507 8.30708C5.38997 8.35967 5.53349 8.46902 5.72832 8.66412L8.04003 10.5555C8.35946 10.8169 8.80967 11.1368 8.95695 11.3498C9.04989 11.4841 9.0925 11.6403 8.95795 11.7754L6.62178 14.3427ZM12.8527 12.1668C12.5336 12.4287 12.1867 12.8002 12.0096 12.8007C11.8324 12.8009 11.4791 12.4379 11.1584 12.1778L6.12846 8.09755C5.8078 7.83768 5.25543 7.31421 5.52997 7.1739C5.72827 7.07248 6.07487 7.07422 6.07487 7.07422H17.8949C18.9591 7.07422 18.418 7.5997 18.418 7.5997L12.8527 12.1668ZM18.3355 15.4879C18.0607 15.1796 17.6545 14.6482 17.377 14.3427L15.0421 11.7751C14.9069 11.6401 14.9492 11.4839 15.0421 11.3495C15.1894 11.1365 15.6399 10.8168 15.9596 10.5555L17.6932 9.13728C18.0126 8.8759 18.4327 8.44836 18.7145 8.30708C18.9963 8.16581 18.9841 8.9534 18.9851 9.36601L19 15.4906C19.0002 16.1003 18.6457 15.836 18.3355 15.4879Z" fill="white"/>
</svg>
