<svg width="24" height="24" viewBox="0 0 24 24" fill="none" xmlns="http://www.w3.org/2000/svg">
<path d="M12 24C18.6274 24 24 18.6274 24 12C24 5.37258 18.6274 0 12 0C5.37258 0 0 5.37258 0 12C0 18.6274 5.37258 24 12 24Z" fill="#94A2B8"/>
<path d="M16.2422 6H7.75781C6.78864 6 6 6.78864 6 7.75781V16.2422C6 17.2114 6.78864 18 7.75781 18H16.2422C17.2114 18 18 17.2114 18 16.2422V7.75781C18 6.78864 17.2114 6 16.2422 6ZM12.0234 15.1406C10.2787 15.1406 8.85938 13.7213 8.85938 11.9766C8.85938 10.2318 10.2787 8.8125 12.0234 8.8125C13.7682 8.8125 15.1875 10.2318 15.1875 11.9766C15.1875 13.7213 13.7682 15.1406 12.0234 15.1406ZM15.5391 9.51562C14.9575 9.51562 14.4844 9.04248 14.4844 8.46094C14.4844 7.87939 14.9575 7.40625 15.5391 7.40625C16.1206 7.40625 16.5938 7.87939 16.5938 8.46094C16.5938 9.04248 16.1206 9.51562 15.5391 9.51562Z" fill="white"/>
<path d="M12.0625 10.0156C10.9598 10.0156 10.0625 10.9129 10.0625 12.0156C10.0625 13.1183 10.9598 14.0156 12.0625 14.0156C13.1652 14.0156 14.0625 13.1183 14.0625 12.0156C14.0625 10.9129 13.1652 10.0156 12.0625 10.0156Z" fill="white"/>
</svg>
