<svg width="30" height="37" viewBox="0 0 30 37" fill="none" xmlns="http://www.w3.org/2000/svg">
<g clip-path="url(#clip0)">
<g filter="url(#filter0_dd)">
<path d="M15 19.7999C17.8719 19.7999 20.2 17.4718 20.2 14.5999C20.2 11.728 17.8719 9.3999 15 9.3999C12.1281 9.3999 9.79999 11.728 9.79999 14.5999C9.79999 17.4718 12.1281 19.7999 15 19.7999Z" fill="#0C447C"/>
<path d="M14.6 0C6.6 0 0 6.2 0 13.8C0 16.7 1.1 20.1 3.4 23.9L7.9 19.4C7 18 6.4 16.4 6.4 14.6C6.4 9.9 10.3 6 15 6C19.7 6 23.6 9.9 23.6 14.6C23.6 19.3 19.8 23.2 15 23.2C13.2 23.2 11.6 22.7 10.2 21.7L5.3 26.6C5.3 26.6 5.2 26.6 5.2 26.7C5.7 27.5 6.3 28.2 6.9 29C10.3 33.3 13.6 36.4 13.7 36.6C14 36.8 14.3 37 14.6 37C14.9 37 15.3 36.9 15.5 36.7C15.6 36.6 19 33.6 22.3 29.3C26.9 23.5 29.2 18.2 29.2 13.8C29.2 6.2 22.7 0 14.6 0Z" fill="#0C447C"/>
</g>
</g>
<defs>
<filter id="filter0_dd" x="-4" y="0" width="37.2" height="45" filterUnits="userSpaceOnUse" color-interpolation-filters="sRGB">
<feFlood flood-opacity="0" result="BackgroundImageFix"/>
<feColorMatrix in="SourceAlpha" type="matrix" values="0 0 0 0 0 0 0 0 0 0 0 0 0 0 0 0 0 0 127 0"/>
<feOffset dy="4"/>
<feGaussianBlur stdDeviation="2"/>
<feColorMatrix type="matrix" values="0 0 0 0 0 0 0 0 0 0 0 0 0 0 0 0 0 0 0.25 0"/>
<feBlend mode="normal" in2="BackgroundImageFix" result="effect1_dropShadow"/>
<feColorMatrix in="SourceAlpha" type="matrix" values="0 0 0 0 0 0 0 0 0 0 0 0 0 0 0 0 0 0 127 0"/>
<feOffset dy="4"/>
<feGaussianBlur stdDeviation="2"/>
<feColorMatrix type="matrix" values="0 0 0 0 0 0 0 0 0 0 0 0 0 0 0 0 0 0 0.25 0"/>
<feBlend mode="normal" in2="effect1_dropShadow" result="effect2_dropShadow"/>
<feBlend mode="normal" in="SourceGraphic" in2="effect2_dropShadow" result="shape"/>
</filter>
<clipPath id="clip0">
<rect width="29.2" height="37" fill="white"/>
</clipPath>
</defs>
</svg>
