<svg width="24" height="24" viewBox="0 0 24 24" fill="none" xmlns="http://www.w3.org/2000/svg">
<path opacity="0.95" d="M12 24C18.6274 24 24 18.6274 24 12C24 5.37258 18.6274 0 12 0C5.37258 0 0 5.37258 0 12C0 18.6274 5.37258 24 12 24Z" fill="#94A2B8"/>
<path fill-rule="evenodd" clip-rule="evenodd" d="M11.3389 16.5214H12.2355C12.2355 16.5214 12.5064 16.4917 12.6446 16.3426C12.7719 16.2058 12.7678 15.9488 12.7678 15.9488C12.7678 15.9488 12.7503 14.7457 13.3087 14.5686C13.8591 14.3941 14.5659 15.7313 15.3151 16.2455C15.8816 16.6347 16.3121 16.5493 16.3121 16.5493L18.3153 16.5214C18.3153 16.5214 19.3632 16.4569 18.8663 15.633C18.8256 15.5656 18.5769 15.0235 17.3769 13.9096C16.1209 12.7438 16.2891 12.9324 17.8021 10.9158C18.7235 9.68764 19.0919 8.93785 18.9769 8.61672C18.8671 8.31086 18.1894 8.3917 18.1894 8.3917L15.9339 8.40575C15.9339 8.40575 15.7668 8.38295 15.6427 8.45707C15.5216 8.52977 15.4436 8.69919 15.4436 8.69919C15.4436 8.69919 15.0866 9.64956 14.6105 10.4578C13.6062 12.1632 13.2046 12.2532 13.0405 12.1474C12.6587 11.9005 12.754 11.1558 12.754 10.6268C12.754 8.9741 13.0046 8.285 12.2659 8.10661C12.0207 8.04736 11.8403 8.00826 11.2133 8.00194C10.4085 7.9936 9.72734 8.00439 9.34165 8.19336C9.08507 8.319 8.88714 8.599 9.00769 8.61509C9.15675 8.63505 9.49438 8.70612 9.67338 8.94987C9.9045 9.26428 9.89636 9.97049 9.89636 9.97049C9.89636 9.97049 10.0291 11.916 9.58622 12.1577C9.28219 12.3235 8.86515 11.9851 7.96976 10.4378C7.51097 9.64528 7.16459 8.76924 7.16459 8.76924C7.16459 8.76924 7.0978 8.60552 6.97867 8.51796C6.83409 8.41186 6.63208 8.37806 6.63208 8.37806L4.48882 8.39211C4.48882 8.39211 4.16708 8.40107 4.04897 8.54097C3.94389 8.66539 4.04062 8.92278 4.04062 8.92278C4.04062 8.92278 5.71857 12.8485 7.61849 14.8268C9.36059 16.6406 11.3389 16.5214 11.3389 16.5214Z" fill="white"/>
</svg>
