<svg width="40" height="40" viewBox="0 0 40 40" fill="none" xmlns="http://www.w3.org/2000/svg">
<g clip-path="url(#clip0)">
<path opacity="0.95" d="M20 40C31.0457 40 40 31.0457 40 20C40 8.9543 31.0457 0 20 0C8.9543 0 0 8.9543 0 20C0 31.0457 8.9543 40 20 40Z" fill="#94A2B8"/>
<path d="M27.2222 14.0637C27.2222 10.1688 23.9823 7 20 7C16.0177 7 12.7778 10.1688 12.7778 14.0637C12.7778 17.9586 16.0177 21.1274 20 21.1274C23.9823 21.1274 27.2222 17.9586 27.2222 14.0637ZM20 21.1274C12.8318 21.1274 7 26.8312 7 33.8421V35.1661C7 35.5677 7.17468 35.9503 7.48052 36.2182C10.999 39.3018 15.4452 41 20 41C24.5549 41 29.0011 39.3018 32.5195 36.2182C32.8253 35.9503 33 35.5676 33 35.1661V33.8421C33 26.8312 27.1682 21.1274 20 21.1274Z" fill="white"/>
</g>
<defs>
<clipPath id="clip0">
<rect width="40" height="40" fill="white"/>
</clipPath>
</defs>
</svg>
