<svg width="24" height="24" viewBox="0 0 24 24" fill="none" xmlns="http://www.w3.org/2000/svg">
<path opacity="0.95" d="M12 24C18.6274 24 24 18.6274 24 12C24 5.37258 18.6274 0 12 0C5.37258 0 0 5.37258 0 12C0 18.6274 5.37258 24 12 24Z" fill="#94A2B8"/>
<path d="M13.7225 7.32458H15.0006V5.09858C14.7801 5.06825 14.0217 5 13.1386 5C11.2958 5 10.0335 6.15908 10.0335 8.28942V10.25H8V12.7385H10.0335V19H12.5267V12.7391H14.4779L14.7877 10.2506H12.5261V8.53617C12.5267 7.81692 12.7203 7.32458 13.7225 7.32458Z" fill="white"/>
</svg>
